<?xml version="1.0" standalone="no"?><!DOCTYPE svg PUBLIC "-//W3C//DTD SVG 1.1//EN" "http://www.w3.org/Graphics/SVG/1.1/DTD/svg11.dtd"><svg width="64" height="64" viewBox="0 0 64 64" version="1.1" xmlns="http://www.w3.org/2000/svg" xmlns:xlink="http://www.w3.org/1999/xlink"><defs><style type="text/css"><![CDATA[
@font-face { font-family: ifont; src: url(http://at.alicdn.com/t/font_1442373896_4754455.eot?#iefix) format(embedded-opentype), url(http://at.alicdn.com/t/font_1442373896_4754455.woff) format(woff), url(http://at.alicdn.com/t/font_1442373896_4754455.ttf) format(truetype), url(http://at.alicdn.com/t/font_1442373896_4754455.svg#ifont) format(svg); }

]]></style></defs><g class="transform-group"><g transform="scale(0.0625, 0.0625)"><path d="M349.696 424.5504c29.866667 0 54.101333-24.200533 54.101333-54.0672 0-29.9008-24.200533-54.101333-54.101333-54.101333-29.9008 0-54.101333 24.200533-54.101333 54.101333C295.594667 400.349867 319.7952 424.5504 349.696 424.5504zM674.338133 424.5504c29.866667 0 54.135467-24.200533 54.135467-54.0672 0-29.9008-24.2688-54.101333-54.135467-54.101333s-54.101333 24.200533-54.101333 54.101333C620.2368 400.349867 644.471467 424.5504 674.338133 424.5504zM512 13.346133c-274.909867 0-497.7664 222.856533-497.7664 497.7664 0 274.875733 222.856533 497.7664 497.7664 497.7664s497.7664-222.890667 497.7664-497.7664C1009.800533 236.202667 786.944 13.346133 512 13.346133zM512 965.597867c-251.016533 0-454.485333-203.4688-454.485333-454.4512C57.514667 260.130133 260.983467 56.6272 512 56.6272s454.485333 203.4688 454.485333 454.485333C966.485333 762.129067 763.016533 965.597867 512 965.597867zM750.114133 511.146667c-11.9808 0-21.640533 9.659733-21.640533 21.640533 0 119.534933-96.904533 216.4736-216.439467 216.4736-119.5008 0-216.439467-96.938667-216.439467-216.4736 0-11.9808-9.693867-21.640533-21.640533-21.640533s-21.640533 9.659733-21.640533 21.640533c0 143.394133 116.292267 259.6864 259.720533 259.6864 143.428267 0 259.6864-116.292267 259.6864-259.6864C771.6864 520.8064 762.026667 511.146667 750.114133 511.146667z" fill="#949494"></path></g></g></svg>