<?xml version="1.0" standalone="no"?><!DOCTYPE svg PUBLIC "-//W3C//DTD SVG 1.1//EN" "http://www.w3.org/Graphics/SVG/1.1/DTD/svg11.dtd"><svg width="64" height="64" viewBox="0 0 64 64" version="1.1" xmlns="http://www.w3.org/2000/svg" xmlns:xlink="http://www.w3.org/1999/xlink"><defs><style type="text/css"><![CDATA[
@font-face { font-family: ifont; src: url(http://at.alicdn.com/t/font_1442373896_4754455.eot?#iefix) format(embedded-opentype), url(http://at.alicdn.com/t/font_1442373896_4754455.woff) format(woff), url(http://at.alicdn.com/t/font_1442373896_4754455.ttf) format(truetype), url(http://at.alicdn.com/t/font_1442373896_4754455.svg#ifont) format(svg); }

]]></style></defs><g class="transform-group"><g transform="scale(0.0625, 0.0625)"><path d="M797.33 30.46h-540.606c-121.058 0-219.193 98.633-219.193 220.273v543.37c0 121.659 98.154 220.273 219.193 220.273h540.606c121.058 0 219.193-98.633 219.193-220.273v-543.37c0.001-121.659-98.154-220.273-219.193-220.273zM691.753 239.545c24.366 14.133 46.87 31.395 66.785 51.38 31.107 31.041 55.252 67.419 71.674 108.028l-171.57 164.046 33.083-323.443zM527.053 195.036c43.965 0 86.689 8.665 127.085 25.743l-5.374 237.292-205.315-252.131c27.405-7.231 55.471-10.901 83.61-10.901zM295.599 290.933c31.051-31.069 67.339-55.178 108.014-71.673l164.050 171.57-323.468-33.121c14.254-24.561 31.563-47.046 51.435-66.785zM199.673 522.443c0-43.988 8.673-86.743 25.743-127.045l237.329 5.34-252.131 205.339c-7.231-27.307-10.918-55.401-10.918-83.646zM362.356 805.349c-24.368-14.188-46.851-31.542-66.771-51.436-31.107-30.973-55.198-67.397-71.674-108.015l171.578-163.97-33.149 323.443zM527.053 849.846c-43.965 0-86.694-8.665-127.085-25.692l5.374-237.292 205.287 252.112c-27.405 7.206-55.471 10.857-83.572 10.857zM758.564 753.925c-31.004 31.089-67.401 55.235-108.014 71.728l-164.005-171.562 323.455 33.083c-14.167 24.358-31.422 46.773-51.436 66.758zM828.731 649.524l-237.268-5.327 252.11-205.371c7.231 27.307 10.892 55.408 10.892 83.572 0 44.14-8.629 86.842-25.708 127.085z" fill="#949494"></path></g></g></svg>