<?xml version="1.0" standalone="no"?><!DOCTYPE svg PUBLIC "-//W3C//DTD SVG 1.1//EN" "http://www.w3.org/Graphics/SVG/1.1/DTD/svg11.dtd"><svg width="64" height="64" viewBox="0 0 64 64" version="1.1" xmlns="http://www.w3.org/2000/svg" xmlns:xlink="http://www.w3.org/1999/xlink"><defs><style type="text/css"><![CDATA[
@font-face { font-family: ifont; src: url(http://at.alicdn.com/t/font_1442373896_4754455.eot?#iefix) format(embedded-opentype), url(http://at.alicdn.com/t/font_1442373896_4754455.woff) format(woff), url(http://at.alicdn.com/t/font_1442373896_4754455.ttf) format(truetype), url(http://at.alicdn.com/t/font_1442373896_4754455.svg#ifont) format(svg); }

]]></style></defs><g class="transform-group"><g transform="scale(0.0625, 0.0625)"><path d="M597.749759 652.265842c0 0 12.607046-38.506817-48.793022-53.535389-32.660917-7.993558-28.515625-36.202086-24.990565-39.533826 3.527073-3.335767 9.03567-9.348807 13.630028-24.158889 9.827072-5.282051 18.501275-22.482447 6.817531-30.74786 4.531931-16.843963 16.984925-64.359265-22.718055-65.888703 0-13.852546-119.724141-37.108271-92.78125 65.888703-11.338387 3.519018-7.887836 24.330057 4.543007 28.549858 2.363129 0.803484 0.487326 13.652179 15.901531 28.551872 6.38961 6.17716 0.890075 34.003078-20.444538 37.338845-21.336627 3.335767-60.551274 18.194179-56.463374 53.535389C372.453065 652.265842 597.749759 652.265842 597.749759 652.265842zM922.497224 16.445242 86.231547 16.445242c-47.289762 0-85.624403 38.334641-85.624403 85.624403l0 836.307965c0 47.289762 38.334641 85.623396 85.624403 85.623396l836.266683 0c47.287748 0 85.623396-38.333635 85.623396-85.623396l0-836.307965C1008.12062 54.779883 969.784972 16.445242 922.497224 16.445242zM230.832477 350.216295l18.825488 0c5.194453 0 9.411234 4.328543 9.411234 9.672013 0 5.345484-4.21678 9.67-9.411234 9.67l-18.825488 0c-5.198481 0-9.41224-4.324516-9.41224-9.67C221.420236 354.544838 225.633996 350.216295 230.832477 350.216295zM230.832477 444.887444l18.825488 0c5.194453 0 9.411234 4.215773 9.411234 9.414254 0 5.198481-4.21678 9.411234-9.411234 9.411234l-18.825488 0c-5.198481 0-9.41224-4.215773-9.41224-9.411234C221.420236 449.103217 225.633996 444.887444 230.832477 444.887444zM230.832477 539.047102l18.825488 0c5.194453 0 9.411234 4.210739 9.411234 9.410227 0 5.19546-4.21678 9.41224-9.411234 9.41224l-18.825488 0c-5.198481 0-9.41224-4.21678-9.41224-9.41224C221.420236 543.257841 225.633996 539.047102 230.832477 539.047102zM230.832477 633.203739l18.825488 0c5.194453 0 9.411234 4.210739 9.411234 9.410227s-4.21678 9.414254-9.411234 9.414254l-18.825488 0c-5.198481 0-9.41224-4.214767-9.41224-9.414254S225.633996 633.203739 230.832477 633.203739zM221.420236 737.281087c0-5.19546 4.21376-9.41224 9.41224-9.41224l18.825488 0c5.194453 0 9.411234 4.21678 9.411234 9.41224 0 5.197474-4.21678 9.410227-9.411234 9.410227l-18.825488 0C225.633996 746.691314 221.420236 742.478561 221.420236 737.281087zM278.009469 293.871732 711.854546 293.871732l0 471.568547c0 24.037058-13.21721 37.722463-37.726491 37.722463l-387.414177 0c-24.040078 0-46.427879-13.681378-46.427879-37.722463l18.862742 0c18.031066 0 27.565137-20.424401 27.565137-38.451439 0-18.035093-9.534072-18.137794-27.565137-18.137794L240.285999 708.851047l2.898785-36.274581 15.963957-1.447882c18.031066 0 27.565137 5.692855 27.565137-12.340224 0-18.029052-9.534072-44.249008-27.565137-44.249008L240.285999 614.539351l0-37.728504 18.862742 0c18.031066 0 27.565137-5.911346 27.565137-23.940398 0-18.033079-9.534072-32.648835-27.565137-32.648835L240.285999 520.221614l0-37.722463 18.862742 0c18.031066 0 27.565137-17.522595 27.565137-35.553661 0-18.028045-9.534072-21.036579-27.565137-21.036579L240.285999 425.908912l0-37.725484 18.862742 0c18.031066 0 27.565137-10.267075 27.565137-28.29512 0-18.033079-9.534072-28.291092-27.565137-28.291092L240.285999 331.597216l0-56.592253c0-24.038064 13.682385-37.722463 37.72347-37.722463l414.981329 0c16.069679 0 11.322277 5.906312 18.862742 18.862742L278.009469 256.145241c-12.018025 0-18.862742 6.839682-18.862742 18.859721C259.146727 287.026009 265.99245 293.871732 278.009469 293.871732zM787.306521 595.676609l-56.589233 0 0-75.454995 56.589233 0L787.306521 595.676609zM787.306521 501.360886l-56.589233 0 0-75.451974 56.589233 0L787.306521 501.360886zM787.306521 407.04617l-56.589233 0 0-75.448954 56.589233 0L787.306521 407.04617z" fill="#949494"></path></g></g></svg>