<?xml version="1.0" standalone="no"?><!DOCTYPE svg PUBLIC "-//W3C//DTD SVG 1.1//EN" "http://www.w3.org/Graphics/SVG/1.1/DTD/svg11.dtd"><svg width="64" height="64" viewBox="0 0 64 64" version="1.1" xmlns="http://www.w3.org/2000/svg" xmlns:xlink="http://www.w3.org/1999/xlink"><defs><style type="text/css"><![CDATA[
@font-face { font-family: ifont; src: url(http://at.alicdn.com/t/font_1442373896_4754455.eot?#iefix) format(embedded-opentype), url(http://at.alicdn.com/t/font_1442373896_4754455.woff) format(woff), url(http://at.alicdn.com/t/font_1442373896_4754455.ttf) format(truetype), url(http://at.alicdn.com/t/font_1442373896_4754455.svg#ifont) format(svg); }

]]></style></defs><g class="transform-group"><g transform="scale(0.0625, 0.0625)"><path d="M512 83.2c-247.04 0-448 200.96-448 448 0 246.976 200.96 448 448 448 246.976 0 448-201.024 448-448C960 284.16 758.976 83.2 512 83.2zM512 147.2c212.032 0 384 172.032 384 384 0 85.632-28.352 164.352-75.712 228.224-46.592-73.152-117.824-128.896-202.496-154.176 49.536-33.92 82.176-90.816 82.176-155.264 0-103.68-84.288-188.032-188.032-188.032-103.68 0-188.032 84.352-188.032 188.032 0 65.024 33.216 122.368 83.52 156.096-84.608 26.048-155.712 82.432-201.664 156.16C157.184 697.92 128 618.048 128 531.2 128 319.168 299.968 147.2 512 147.2zM388.032 449.984c0-68.352 55.616-124.032 124.032-124.032s124.032 55.616 124.032 124.032S580.352 574.016 512 574.016 388.032 518.4 388.032 449.984zM251.008 812.288c50.56-93.952 149.056-158.336 262.976-158.336 112.96 0 210.752 63.168 261.888 155.712C707.008 874.944 614.336 915.2 512 915.2 411.072 915.2 319.552 875.968 251.008 812.288z" fill="#949494"></path></g></g></svg>