<?xml version="1.0" standalone="no"?><!DOCTYPE svg PUBLIC "-//W3C//DTD SVG 1.1//EN" "http://www.w3.org/Graphics/SVG/1.1/DTD/svg11.dtd"><svg width="64" height="64" viewBox="0 0 64 64" version="1.1" xmlns="http://www.w3.org/2000/svg" xmlns:xlink="http://www.w3.org/1999/xlink"><defs><style type="text/css"><![CDATA[
@font-face { font-family: ifont; src: url(http://at.alicdn.com/t/font_1442373896_4754455.eot?#iefix) format(embedded-opentype), url(http://at.alicdn.com/t/font_1442373896_4754455.woff) format(woff), url(http://at.alicdn.com/t/font_1442373896_4754455.ttf) format(truetype), url(http://at.alicdn.com/t/font_1442373896_4754455.svg#ifont) format(svg); }

]]></style></defs><g class="transform-group"><g transform="scale(0.0625, 0.0625)"><path d="M512.39295 928.44776c-27.306926 0-50.41318-16.804734-58.815547-42.011836l-44.11166 0c10.503215 48.313356 52.513004 84.021625 102.927207 84.021625s92.425016-35.709293 102.926184-84.021625l-44.11166 0C562.806129 911.644049 539.699875 928.44776 512.39295 928.44776zM846.38065 779.310092l-39.909965-60.916395 0-294.077735c0-140.736325-98.726535-258.367419-231.060493-287.776216L575.410192 109.23282c0-35.709293-27.306926-63.016219-63.016219-63.016219s-63.016219 27.306926-63.016219 63.016219l0 27.306926c-132.334981 29.407774-231.060493 147.037844-231.060493 287.776216l0 294.077735-39.909965 60.916395c-18.904559 27.306926 0 65.117067 33.608445 65.117067l598.656639 0C846.38065 844.426135 865.285209 806.617018 846.38065 779.310092zM491.387543 109.23282c0-12.603039 8.402367-21.005406 21.005406-21.005406 12.603039 0 21.005406 8.402367 21.005406 21.005406l0 21.005406-42.011836 0L491.387543 109.23282 491.387543 109.23282zM212.013695 802.415322l39.909965-60.916395 6.30152-10.503215 0-12.603039L258.225179 424.315962c0-138.6365 113.429399-252.065899 252.065899-252.065899S762.358001 285.679461 762.358001 424.315962l0 294.077735 0 12.603039 6.30152 10.503215 39.909965 60.916395L212.013695 802.415322z" fill="#949494"></path></g></g></svg>