<?xml version="1.0" standalone="no"?><!DOCTYPE svg PUBLIC "-//W3C//DTD SVG 1.1//EN" "http://www.w3.org/Graphics/SVG/1.1/DTD/svg11.dtd"><svg width="64" height="64" viewBox="0 0 64 64" version="1.1" xmlns="http://www.w3.org/2000/svg" xmlns:xlink="http://www.w3.org/1999/xlink"><defs><style type="text/css"><![CDATA[
@font-face { font-family: ifont; src: url(http://at.alicdn.com/t/font_1442373896_4754455.eot?#iefix) format(embedded-opentype), url(http://at.alicdn.com/t/font_1442373896_4754455.woff) format(woff), url(http://at.alicdn.com/t/font_1442373896_4754455.ttf) format(truetype), url(http://at.alicdn.com/t/font_1442373896_4754455.svg#ifont) format(svg); }

]]></style></defs><g class="transform-group"><g transform="scale(0.0625, 0.0625)"><path d="M729.051943 259.615852 292.623106 259.615852c-126.254495 0-228.604558 102.350063-228.604558 228.604558 0 126.255519 102.350063 228.604558 228.604558 228.604558l436.428837 0c126.255519 0 228.604558-102.350063 228.604558-228.604558C957.657524 361.965915 855.307462 259.615852 729.051943 259.615852zM725.203288 684.85279c-108.611673 0-196.656939-88.045265-196.656939-196.656939 0-108.61065 88.045265-196.656939 196.656939-196.656939 108.612697 0 196.657962 88.046289 196.657962 196.656939C921.86125 596.807524 833.815985 684.85279 725.203288 684.85279z" fill="#949494"></path></g></g></svg>